<svg xmlns="http://www.w3.org/2000/svg" fill="none" viewBox="0 0 90 90" height="90" width="90">
<path fill="#0E0311" d="M45.4956 45.002C50.9956 45.002 55.4956 39.9186 55.4956 33.752C55.4956 27.5853 50.9956 22.502 45.4956 22.502C39.9956 22.502 35.4956 27.5853 35.4956 33.752C35.4956 39.9186 39.9956 45.002 45.4956 45.002ZM45.4956 24.1686C50.0789 24.1686 53.8289 28.502 53.8289 33.752C53.8289 39.002 50.0789 43.3353 45.4956 43.3353C40.9123 43.3353 37.1623 39.002 37.1623 33.752C37.1623 28.502 40.9123 24.1686 45.4956 24.1686ZM56.0789 48.6686C55.8289 48.502 52.5789 47.3353 49.5789 46.9186C49.4123 46.9186 49.1623 46.9186 48.9956 47.0853L45.4956 49.752L41.9956 47.0853C41.9123 47.002 41.8289 47.002 41.7456 46.9186C41.6623 46.9186 41.4956 46.9186 41.4123 46.9186C38.4956 47.3353 35.4956 48.3353 34.9123 48.6686C23.1623 53.5853 22.9956 66.502 22.9956 66.6686C22.9956 67.1686 23.3289 67.502 23.8289 67.502H67.1623C67.6623 67.502 67.9956 67.1686 67.9956 66.6686C67.9956 66.502 67.8289 53.5853 56.0789 48.6686ZM55.4956 55.8353C56.4123 55.8353 57.1623 56.5853 57.1623 57.502C57.1623 58.4186 56.4123 59.1686 55.4956 59.1686C54.5789 59.1686 53.8289 58.4186 53.8289 57.502C53.8289 56.5853 54.5789 55.8353 55.4956 55.8353ZM26.7456 58.4186C28.4956 54.8353 31.1623 52.252 34.6623 50.5853V54.3353C31.4123 54.9186 30.4956 58.7519 30.4956 60.9186C30.4956 61.4186 30.8289 61.7519 31.3289 61.7519H32.9956C33.4956 61.7519 33.8289 61.4186 33.8289 60.9186C33.8289 60.4186 33.4956 60.0853 32.9956 60.0853H32.2456C32.4123 58.6686 33.0789 55.9186 35.4956 55.9186C37.9123 55.9186 38.5789 58.6686 38.7456 60.0853H37.9956C37.4956 60.0853 37.1623 60.4186 37.1623 60.9186C37.1623 61.4186 37.4956 61.7519 37.9956 61.7519H39.6623C40.1623 61.7519 40.4956 61.4186 40.4956 60.9186C40.4956 58.7519 39.5789 54.9186 36.3289 54.3353V49.9186C37.8289 49.3353 39.4956 48.9186 41.2456 48.752L44.6623 51.3353V65.8353H24.7456C24.8289 64.4186 25.2456 61.5019 26.7456 58.4186ZM46.3289 65.8353V51.252L49.7456 48.6686C51.5789 48.9186 53.2456 49.3353 54.6623 49.9186V54.3353C53.2456 54.6686 52.1623 56.0019 52.1623 57.5853C52.1623 59.4186 53.6623 60.9186 55.4956 60.9186C57.3289 60.9186 58.8289 59.4186 58.8289 57.5853C58.8289 56.0019 57.7456 54.752 56.3289 54.3353V50.5853C64.7456 54.5853 66.0789 63.0853 66.3289 65.8353H46.3289Z"></path>
<circle stroke-width="1.07143" stroke="#C20020" r="44.4643" cy="45" cx="45"></circle>
</svg>
