<svg xmlns="http://www.w3.org/2000/svg" fill="none" viewBox="0 0 90 90" height="90" width="90">
<g clip-path="url(#clip0_2406_588)">
<path fill="#0E0311" d="M68.6469 47.0763C68.198 46.1917 64.4381 45.333 61.8101 45.1769C62.7273 39.3809 60.8278 34.7688 60.509 34.4891C60.4791 34.4555 60.4439 34.427 60.405 34.4045C59.9236 34.0923 55.8514 34.9184 52.1305 37.2732C50.73 33.7701 48.3999 30.7157 45.3913 28.4394C45.2844 28.4134 45.1729 28.4134 45.066 28.4394C42.0623 30.7174 39.7367 33.7717 38.3398 37.2732C34.6189 34.9184 30.5338 34.0923 30.0654 34.4045C30.0264 34.427 29.9913 34.4555 29.9613 34.4891C29.6751 34.7623 27.7756 39.3809 28.6928 45.1769C26.0908 45.333 22.3049 46.1917 21.856 47.0763H21.8105C21.8083 47.1023 21.8083 47.1284 21.8105 47.1544C21.8073 47.1869 21.8073 47.2195 21.8105 47.252C22.1236 49.9475 23.0602 52.533 24.5461 54.8037C26.032 57.0743 28.0264 58.9677 30.3711 60.3336C32.8827 61.7682 35.7272 62.5174 38.6195 62.5063C40.5521 62.5003 42.4721 62.1953 44.3115 61.6021L44.962 61.7192C45.1214 61.7452 45.2839 61.7452 45.4433 61.7192L46.0938 61.6021C47.9332 62.1953 49.8532 62.5003 51.7858 62.5063C54.6781 62.5174 57.5226 61.7682 60.0342 60.3336C62.3886 58.9736 64.3932 57.0829 65.8884 54.8119C67.3836 52.5409 68.3281 49.9523 68.6469 47.252C68.65 47.2195 68.65 47.1869 68.6469 47.1544C68.6491 47.1284 68.6491 47.1023 68.6469 47.0763ZM59.6244 35.699C60.5314 38.2475 60.8772 40.962 60.6381 43.6565C60.399 46.3511 59.5805 48.9622 58.2388 51.3111C55.8584 55.4119 52.0369 58.4798 47.5185 59.9173C51.4334 55.9816 53.6317 50.6566 53.6332 45.1053C53.6379 42.8686 53.2821 40.6457 52.5794 38.5222C54.7203 37.1292 57.1139 36.17 59.6244 35.699ZM45.2287 29.8965C47.4389 31.7698 49.2179 34.0988 50.444 36.7239C51.6701 39.349 52.3142 42.2081 52.3322 45.1053C52.3138 48.0034 51.6696 50.8634 50.4436 53.4894C49.2176 56.1155 47.4387 58.4457 45.2287 60.3206C43.0187 58.4457 41.2398 56.1155 40.0138 53.4894C38.7877 50.8634 38.1435 48.0034 38.1252 45.1053C38.1431 42.2081 38.7873 39.349 40.0133 36.7239C41.2394 34.0988 43.0185 31.7698 45.2287 29.8965ZM30.833 35.699C33.3434 36.17 35.737 37.1292 37.878 38.5222C36.665 42.2081 36.4957 46.1578 37.389 49.934C38.2822 53.7102 40.2031 57.1655 42.9389 59.9173C38.4205 58.4798 34.5989 55.4119 32.2186 51.3111C30.8768 48.9622 30.0584 46.3511 29.8192 43.6565C29.5801 40.962 29.9259 38.2475 30.833 35.699ZM31.0086 59.2278C24.7963 55.6825 23.4302 49.3596 23.1635 47.6553C25.0168 46.9343 26.9786 46.5318 28.966 46.4649C29.3907 48.3939 30.1057 50.2473 31.0867 51.9616C33.4788 56.1261 37.2847 59.2949 41.8135 60.8931C38.1256 61.6446 34.2905 61.0442 31.0086 59.2018V59.2278ZM59.4487 59.2278C56.1669 61.0703 52.3317 61.6706 48.6438 60.9191C53.1769 59.3144 56.9833 56.1358 59.3707 51.9616C60.3547 50.2487 61.0699 48.3949 61.4913 46.4649C63.47 46.5347 65.4227 46.9372 67.2678 47.6553C67.0271 49.3596 65.661 55.6825 59.4487 59.2018V59.2278Z"></path>
</g>
<circle stroke-width="1.07143" stroke="#C20020" r="44.4643" cy="45" cx="45"></circle>
<defs>
<clipPath id="clip0_2406_588">
<rect transform="translate(21.8081 21.3164)" fill="white" height="47.3684" width="47.3684"></rect>
</clipPath>
</defs>
</svg>
