<svg xmlns="http://www.w3.org/2000/svg" fill="none" viewBox="0 0 90 90" height="90" width="90">
<path fill="#0E0311" d="M61.3172 29.7714C47.5096 15.7019 23.169 25.4951 23.1382 45.4427C23.1461 51.3581 25.4995 57.029 29.6823 61.2118C33.8652 65.3946 39.5361 67.748 45.4515 67.7559C65.2019 67.8024 75.1429 43.5728 61.3172 29.7714ZM45.4515 24.7228C50.6706 24.7196 55.6971 26.6939 59.5189 30.2482L54.132 35.6351C53.9858 33.3798 52.9682 31.2697 51.2942 29.7512C49.6203 28.2328 47.4213 27.4249 45.1624 27.4986C42.9036 27.5723 40.762 28.5218 39.1906 30.1461C37.6191 31.7705 36.7412 33.9424 36.7424 36.2025V53.0247L30.2573 59.5098C18.0459 46.5196 27.444 24.666 45.4515 24.7228ZM38.3362 53.6847L45.7815 46.2393H52.5669V54.6823C51.9957 64.7318 37.6963 63.8063 38.3362 53.6847ZM38.3362 46.2393H43.5278L38.3362 51.4309V46.2393ZM52.5669 44.6455H47.3753L52.5669 39.4539V44.6455ZM45.1216 44.6455H38.3362V36.2025C38.3384 34.3161 39.0888 32.5077 40.4227 31.1739C41.7566 29.8401 43.5652 29.0899 45.4515 29.0879C46.4692 29.1002 47.4728 29.3265 48.3973 29.7521C49.3217 30.1777 50.1462 30.793 50.8173 31.5581C51.4884 32.3232 51.9909 33.221 52.2923 34.193C52.5938 35.1651 52.6873 36.1897 52.5668 37.2002L45.1216 44.6455ZM45.4516 66.1621C40.2325 66.1652 35.206 64.1909 31.3842 60.6366L36.7711 55.2497C36.9173 57.505 37.935 59.6151 39.6089 61.1335C41.2829 62.652 43.4818 63.4598 45.7406 63.3861C47.9995 63.3124 50.1411 62.3629 51.7125 60.7386C53.2839 59.1143 54.1619 56.9424 54.1607 54.6823V37.8601L60.6458 31.3751C72.8572 44.3653 63.4591 66.2188 45.4516 66.1621Z"></path>
<circle stroke-width="1.07143" stroke="#C20020" r="44.4643" cy="45" cx="45"></circle>
</svg>
